<?xml version="1.0" standalone="no"?>
<!DOCTYPE svg PUBLIC "-//W3C//DTD SVG 20010904//EN"
 "http://www.w3.org/TR/2001/REC-SVG-20010904/DTD/svg10.dtd">
<svg version="1.0" xmlns="http://www.w3.org/2000/svg"
 width="988.000000pt" height="1280.000000pt" viewBox="0 0 988.000000 1280.000000"
 preserveAspectRatio="xMidYMid meet">
<g transform="translate(0.000000,1280.000000) scale(0.100000,-0.100000)"
fill="#000000" stroke="none">
<path d="M2800 12773 c-28 -36 -21 -79 26 -155 19 -31 34 -62 34 -70 0 -8 -21
-34 -46 -58 -25 -25 -52 -57 -60 -72 -21 -40 -17 -101 10 -166 35 -83 61 -219
46 -238 -18 -21 -1351 -21 -1369 0 -8 9 -9 56 -5 159 7 145 7 145 -20 191 -14
25 -54 79 -87 121 -84 106 -113 118 -268 113 -70 -2 -125 -9 -140 -17 -23 -13
-23 -15 -19 -134 3 -69 13 -152 23 -190 l18 -68 -27 -67 c-14 -37 -26 -77 -26
-89 0 -11 -7 -24 -16 -27 -9 -3 -196 -6 -416 -6 l-400 0 -29 -29 -29 -29 0
-5937 0 -5937 34 -34 34 -34 4872 0 4872 0 34 34 34 34 0 5937 0 5937 -29 29
-29 29 -361 0 c-277 0 -362 3 -368 13 -4 6 -10 78 -13 159 -3 92 -9 151 -17
159 -7 7 -72 15 -165 20 -168 8 -304 23 -358 39 -51 15 -62 13 -98 -17 l-33
-28 22 -84 c23 -93 23 -217 -1 -246 -11 -13 -87 -15 -664 -13 l-651 3 -1 112
c-1 116 -13 166 -45 183 -10 6 -46 10 -81 10 l-64 0 -99 75 c-98 74 -165 105
-227 105 -36 0 -35 -11 2 -53 l29 -34 -22 -21 c-12 -11 -33 -25 -47 -30 l-25
-9 0 -169 0 -169 -609 -3 c-401 -1 -613 1 -620 8 -18 18 -35 103 -36 173 0 56
-6 82 -34 143 -19 41 -39 74 -44 74 -22 0 -103 86 -135 143 -55 97 -119 157
-205 190 -40 15 -77 25 -82 22 -6 -4 -1 -27 11 -58 52 -131 48 -158 -32 -262
-27 -36 -52 -78 -55 -93 -7 -34 12 -83 55 -142 23 -32 31 -54 31 -86 0 -47
-15 -94 -33 -106 -20 -12 -1385 -10 -1392 3 -4 5 -2 38 4 72 39 217 50 334 38
436 l-11 102 -62 -3 c-53 -2 -68 2 -101 25 -58 40 -195 95 -262 106 -33 5 -77
19 -99 30 l-41 21 -21 -27z m-1934 -903 c1 -41 5 -110 9 -152 10 -97 0 -122
-66 -168 -149 -103 -250 -323 -235 -508 16 -202 130 -382 302 -478 373 -209
843 48 871 477 11 169 -45 322 -167 452 l-69 74 -6 94 c-4 52 -13 110 -20 129
-7 19 -14 62 -16 95 l-4 60 667 3 666 2 6 -67 c3 -38 8 -111 11 -163 l6 -95
-63 -35 c-227 -127 -343 -400 -278 -654 28 -110 74 -190 155 -271 81 -81 161
-127 271 -155 323 -83 650 122 720 451 43 201 -36 431 -196 570 -32 28 -63 63
-68 77 -5 15 -8 97 -7 182 l3 155 671 3 671 2 0 -34 c0 -19 6 -63 14 -98 8
-35 17 -89 20 -120 l5 -57 -77 -42 c-111 -61 -198 -152 -250 -259 -47 -99 -62
-163 -62 -263 1 -250 153 -463 398 -555 57 -22 84 -25 182 -26 96 -1 127 3
189 23 244 80 405 304 405 561 0 142 -39 253 -129 370 -66 85 -74 120 -74 324
l0 176 591 0 590 0 -8 -27 c-4 -16 -7 -100 -5 -188 l2 -160 -78 -80 c-123
-126 -173 -249 -173 -422 0 -430 455 -712 844 -522 151 74 268 216 311 379 22
83 19 234 -6 316 -49 162 -163 293 -320 367 -93 44 -100 53 -74 97 8 14 28 54
46 90 18 36 46 84 62 108 l30 42 647 0 647 0 6 -35 c3 -19 2 -49 -3 -66 -7
-22 -5 -39 4 -58 7 -14 18 -57 26 -95 15 -78 17 -73 -70 -126 -99 -60 -202
-196 -241 -320 -28 -86 -30 -240 -5 -325 57 -194 201 -345 388 -406 96 -31
263 -34 348 -5 209 71 358 228 405 429 62 263 -67 541 -310 663 -43 22 -80 45
-83 52 -4 13 31 49 92 96 37 27 38 31 33 75 -6 51 12 92 47 110 15 8 135 11
386 9 l365 -3 0 -5940 0 -5940 -4875 0 -4875 0 -3 5930 c-1 3262 0 5936 3
5943 3 10 89 12 402 10 l398 -3 1 -75z"/>
<path d="M673 8654 c-3 -8 -1 -20 4 -25 5 -5 1630 -8 4244 -7 4226 3 4234 3
4234 23 0 20 -8 20 -4238 23 -3841 2 -4238 1 -4244 -14z"/>
<path d="M675 7119 c-4 -12 -3 -25 2 -30 5 -5 1742 -8 4244 -7 l4234 3 0 25 0
25 -4237 3 -4237 2 -6 -21z"/>
<path d="M674 5585 c-4 -8 -4 -22 0 -30 5 -13 482 -15 4243 -13 l4238 3 0 25
0 25 -4238 3 c-3761 2 -4238 0 -4243 -13z"/>
<path d="M674 4045 c-4 -8 -1 -22 6 -30 11 -13 510 -15 4234 -15 2321 0 4227
4 4234 9 8 5 12 17 10 27 -3 19 -102 19 -4241 22 -3776 2 -4238 0 -4243 -13z"/>
<path d="M680 2515 c-7 -8 -10 -22 -6 -30 5 -13 469 -15 4241 -15 3772 0 4236
2 4241 15 4 8 1 22 -6 30 -11 13 -510 15 -4235 15 -3725 0 -4224 -2 -4235 -15z"/>
<path d="M674 975 c-4 -8 -4 -22 0 -30 5 -13 482 -15 4243 -13 l4238 3 0 25 0
25 -4238 3 c-3761 2 -4238 0 -4243 -13z"/>
</g>
</svg>
